<svg width="260" height="260" viewBox="0 0 260 260" xmlns="http://www.w3.org/2000/svg"><path d="M84.058 194.09L21.13 96.322c-5.865-9.113-3.247-21.306 5.838-27.183A19.458 19.458 0 0 1 37.555 66c6.69 0 12.848 3.361 16.472 8.99l30.077 46.865 29.89-46.775c.409-.608.7-.993.963-1.34l.382-.51c.197-.243.424-.49.705-.796.428-.473.52-.578.613-.67.12-.12.248-.235.422-.39l.425-.39c.237-.218.434-.4.632-.561.085-.068.454-.341.536-.4.386-.294.728-.552 1.14-.824l.508-.305c.358-.217.713-.433 1.092-.632.143-.077.8-.386.8-.386.294-.14.588-.279.886-.4.298-.123.601-.23 1.004-.37.316-.111.528-.186.743-.25.366-.11.731-.204 1.139-.302.233-.057.463-.111.685-.157.366-.072.737-.13 1.183-.193a16.45 16.45 0 0 1 1.742-.16 17.477 17.477 0 0 1 1.809 0c.35.015.69.037 1.032.072.232.023.462.053.74.091.415.06.785.117 1.156.19.238.049.48.107.73.168.367.088.725.179 1.092.291.229.068.445.143.667.221.48.169.784.276 1.09.4.246.1.485.213.802.363.519.244.697.327.88.423.375.198.732.413 1.075.623.06.037.496.296.496.296.424.282.759.53 1.175.845 0 0 .454.339.51.385.24.195.46.398.722.639l.444.403c.446.425.56.554.687.699l.34.377c.251.269.449.485.625.702l.405.544c.302.4.55.733.833 1.156l30.035 46.923 30.033-46.863A19.52 19.52 0 0 1 223.445 66c3.756 0 7.417 1.085 10.588 3.138 9.081 5.877 11.702 18.071 5.84 27.183l-62.93 97.773-46.497-70.972-46.388 70.969z" fill="#E41A15" fill-rule="evenodd"/></svg>